That's the story of an one eyed businessman that wants at any cost retrieve his lost eye. He tries many schemes, even using an eye made by a crazy inventor that gives him special powers like invisibility. He becomes multi millionaire in the meat market and after entering politics becomes president of Brazil. 

General 
Unique ID : 305751372568358145433454376248870505630 (0xE605928896E77925EEAA1FF89B110C9E) 
Complete name : Simao.o.Caolho.1952.DVDRip.x264.mkv 
Format : Matroska 
Format version : Version 2 
File size : 1.38 GiB 
Duration : 1h 36mn 
Overall bit rate : 2 052 Kbps 
Writing application : HandBrake 0.9.8 
Writing library : libmkv 0.6.5 

Video 
ID : 1 
Format : AVC 
Format/Info : Advanced Video Codec 
Format profile : High@L3.1 
Format settings, CABAC : Yes 
Format settings, ReFrames : 11 frames 
Codec ID : V_MPEG4/ISO/AVC 
Duration : 1h 36mn 
Bit rate : 1 787 Kbps 
Width : 712 pixels 
Height : 476 pixels 
Display aspect ratio : 4:3 
Original display aspect ratio : 4:3 
Frame rate : 23.976 fps 
Color space : YUV 
Chroma subsampling : 4:2:0 
Bit depth : 8 bits 
Scan type : Progressive 
Bits/(Pixel*Frame) : 0.220 
Stream size : 1.20 GiB (87%) 
Writing library : x264 core 120 
Encoding settings : cabac=1 / ref=11 / deblock=1:-2:-2 / analyse=0x3:0x133 / me=umh / subme=11 / psy=1 / psy_rd=1.00:0.00 / mixed_ref=1 / me_range=32 / chroma_me=1 / trellis=2 / 8x8dct=1 / cqm=0 / deadzone=21,11 / fast_pskip=0 / chroma_qp_offset=-2 / threads=4 / sliced_threads=0 / nr=0 / decimate=1 / interlaced=0 / bluray_compat=0 / constrained_intra=0 / bframes=9 / b_pyramid=2 / b_adapt=2 / b_bias=0 / direct=3 / weightb=1 / open_gop=0 / weightp=2 / keyint=240 / keyint_min=24 / scenecut=40 / intra_refresh=0 / rc_lookahead=60 / rc=crf / mbtree=1 / crf=15.0 / qcomp=0.60 / qpmin=3 / qpmax=69 / qpstep=4 / ip_ratio=1.40 / aq=2:1.10 
Language : English 
Default : Yes 
Forced : No 
Color primaries : BT.601-6 525, BT.1358 525, BT.1700 NTSC, SMPTE 170M 
Transfer characteristics : BT.709-5, BT.1361 
Matrix coefficients : BT.601-6 525, BT.1358 525, BT.1700 NTSC, SMPTE 170M 

Audio 
ID : 2 
Format : AC-3 
Format/Info : Audio Coding 3 
Mode extension : CM (complete main) 
Format settings, Endianness : Big 
Codec ID : A_AC3 
Duration : 1h 36mn 
Bit rate mode : Constant 
Bit rate : 224 Kbps 
Channel(s) : 2 channels 
Channel positions : Front: L R 
Sampling rate : 48.0 KHz 
Bit depth : 16 bits 
Compression mode : Lossy 
Stream size : 154 MiB (11%) 
Language : Portuguese 
Default : Yes 
Forced : No 

Menu 
00:00:00.000 : Chapter 1 
00:17:00.144 : Chapter 2 
00:31:00.650 : Chapter 3 
00:46:12.519 : Chapter 4 
00:56:22.337 : Chapter 5 
01:07:58.532 : Chapter 6 
01:20:37.582 : Chapter 7 
01:36:01.422 : Chapter 8 

My rip.